<?xml version="1.0" standalone="no"?>
<!DOCTYPE svg PUBLIC "-//W3C//DTD SVG 20010904//EN"
 "http://www.w3.org/TR/2001/REC-SVG-20010904/DTD/svg10.dtd">
<svg version="1.0" xmlns="http://www.w3.org/2000/svg"
 width="512.000000pt" height="512.000000pt" viewBox="0 0 512.000000 512.000000"
 preserveAspectRatio="xMidYMid meet">
<metadata>
Created by potrace 1.11, written by Peter Selinger 2001-2013
</metadata>
<g transform="translate(0.000000,512.000000) scale(0.100000,-0.100000)"
fill="#000000" stroke="none">
<path d="M618 4513 c-31 -34 -42 -66 -33 -101 4 -18 255 -276 738 -759 l732
-733 -688 0 -687 0 0 -105 0 -105 870 0 870 0 0 915 0 915 -888 0 -888 0 -26
-27z m1592 -809 l0 -626 -418 410 c-229 226 -514 508 -632 626 l-215 216 633
0 632 0 0 -626z"/>
<path d="M2760 4435 l0 -105 687 0 688 0 -738 -738 c-681 -681 -737 -740 -737
-771 0 -41 26 -86 57 -100 17 -8 292 -11 903 -11 l880 0 0 915 0 915 -870 0
-870 0 0 -105z m1530 -885 l0 -630 -632 0 -633 0 630 630 c346 347 631 630
632 630 2 0 3 -283 3 -630z"/>
<path d="M2660 1520 l0 -920 870 0 870 0 0 110 0 110 -687 0 -688 1 727 722
c400 397 732 732 737 744 21 42 13 83 -23 119 l-34 34 -886 0 -886 0 0 -920z
m1479 708 c-2 -2 -289 -286 -637 -633 l-632 -629 0 632 0 632 637 0 c350 0
634 -1 632 -2z"/>
<path d="M1000 2409 c-82 -14 -158 -55 -225 -123 -111 -112 -165 -256 -165
-441 0 -261 130 -517 410 -809 120 -125 454 -406 482 -406 27 0 324 247 455
378 222 222 355 426 414 637 18 61 23 107 23 195 1 135 -12 195 -65 308 -72
151 -193 242 -349 263 -162 22 -296 -24 -410 -140 l-67 -68 -68 68 c-121 123
-258 167 -435 138z m163 -228 c64 -15 110 -56 228 -202 61 -77 115 -136 119
-132 4 4 52 65 108 134 123 154 158 185 230 200 180 37 311 -83 329 -301 14
-174 -75 -373 -267 -596 -76 -88 -258 -260 -356 -335 l-54 -41 -87 72 c-129
107 -349 333 -415 426 -71 100 -131 219 -153 304 -26 99 -17 236 19 317 30 67
98 139 138 147 13 3 32 7 43 9 35 8 79 7 118 -2z"/>
</g>
</svg>
